<svg xmlns="http://www.w3.org/2000/svg" version="1.1" xmlns:xlink="http://www.w3.org/1999/xlink" xmlns:svgjs="http://svgjs.dev/svgjs" width="1440" height="560" preserveAspectRatio="none" viewBox="0 0 1440 560"><g mask="url(&quot;#SvgjsMask1015&quot;)" fill="none"><rect width="1440" height="560" x="0" y="0" fill="rgba(1, 9, 19, 1)"></rect><path d="M116.72 82.7L181.68 120.2L181.68 195.2L116.72 232.7L51.77 195.2L51.77 120.2zM181.68 420.2L246.63 457.7L246.63 532.7L181.68 570.2L116.72 532.7L116.72 457.7zM246.63 532.7L311.58 570.2L311.58 645.2L246.63 682.7L181.68 645.2L181.68 570.2zM506.45 82.7L571.4 120.2L571.4 195.2L506.45 232.7L441.49 195.2L441.49 120.2zM506.45 307.7L571.4 345.2L571.4 420.2L506.45 457.7L441.49 420.2L441.49 345.2zM441.49 420.2L506.45 457.7L506.45 532.7L441.49 570.2L376.54 532.7L376.54 457.7zM571.4 195.2L636.35 232.7L636.35 307.7L571.4 345.2L506.45 307.7L506.45 232.7zM636.35 307.7L701.31 345.2L701.31 420.2L636.35 457.7L571.4 420.2L571.4 345.2zM571.4 420.2L636.35 457.7L636.35 532.7L571.4 570.2L506.45 532.7L506.45 457.7zM636.35 532.7L701.31 570.2L701.31 645.2L636.35 682.7L571.4 645.2L571.4 570.2zM701.31 -29.8L766.26 7.7L766.26 82.7L701.31 120.2L636.35 82.7L636.35 7.7zM766.26 82.7L831.22 120.2L831.22 195.2L766.26 232.7L701.31 195.2L701.31 120.2zM701.31 195.2L766.26 232.7L766.26 307.7L701.31 345.2L636.35 307.7L636.35 232.7zM766.26 307.7L831.22 345.2L831.22 420.2L766.26 457.7L701.31 420.2L701.31 345.2zM701.31 420.2L766.26 457.7L766.26 532.7L701.31 570.2L636.35 532.7L636.35 457.7zM766.26 532.7L831.22 570.2L831.22 645.2L766.26 682.7L701.31 645.2L701.31 570.2zM896.17 532.7L961.12 570.2L961.12 645.2L896.17 682.7L831.21 645.2L831.21 570.2zM961.12 -29.8L1026.08 7.7L1026.08 82.7L961.12 120.2L896.17 82.7L896.17 7.7zM961.12 420.2L1026.08 457.7L1026.08 532.7L961.12 570.2L896.17 532.7L896.17 457.7zM1026.08 532.7L1091.03 570.2L1091.03 645.2L1026.08 682.7L961.12 645.2L961.12 570.2zM1091.03 -29.8L1155.98 7.7L1155.98 82.7L1091.03 120.2L1026.08 82.7L1026.08 7.7zM1155.98 82.7L1220.94 120.2L1220.94 195.2L1155.98 232.7L1091.03 195.2L1091.03 120.2zM1091.03 420.2L1155.98 457.7L1155.98 532.7L1091.03 570.2L1026.08 532.7L1026.08 457.7zM1155.98 532.7L1220.94 570.2L1220.94 645.2L1155.98 682.7L1091.03 645.2L1091.03 570.2zM1220.94 -29.8L1285.89 7.7L1285.89 82.7L1220.94 120.2L1155.98 82.7L1155.98 7.7zM1285.89 532.7L1350.84 570.2L1350.84 645.2L1285.89 682.7L1220.94 645.2L1220.94 570.2zM1350.85 -29.8L1415.8 7.7L1415.8 82.7L1350.85 120.2L1285.89 82.7L1285.89 7.7zM1415.8 82.7L1480.75 120.2L1480.75 195.2L1415.8 232.7L1350.85 195.2L1350.85 120.2zM1415.8 307.7L1480.75 345.2L1480.75 420.2L1415.8 457.7L1350.85 420.2L1350.85 345.2zM1350.85 420.2L1415.8 457.7L1415.8 532.7L1350.85 570.2L1285.89 532.7L1285.89 457.7zM1545.71 82.7L1610.66 120.2L1610.66 195.2L1545.71 232.7L1480.75 195.2L1480.75 120.2zM1480.75 195.2L1545.71 232.7L1545.71 307.7L1480.75 345.2L1415.8 307.7L1415.8 232.7zM1545.71 307.7L1610.66 345.2L1610.66 420.2L1545.71 457.7L1480.75 420.2L1480.75 345.2zM1480.75 420.2L1545.71 457.7L1545.71 532.7L1480.75 570.2L1415.8 532.7L1415.8 457.7z" stroke="rgba(0, 1, 3, 1)" stroke-width="2"></path><path d="M109.22 82.7 a7.5 7.5 0 1 0 15 0 a7.5 7.5 0 1 0 -15 0zM174.18 120.2 a7.5 7.5 0 1 0 15 0 a7.5 7.5 0 1 0 -15 0zM174.18 195.2 a7.5 7.5 0 1 0 15 0 a7.5 7.5 0 1 0 -15 0zM109.22 232.7 a7.5 7.5 0 1 0 15 0 a7.5 7.5 0 1 0 -15 0zM44.27 195.2 a7.5 7.5 0 1 0 15 0 a7.5 7.5 0 1 0 -15 0zM44.27 120.2 a7.5 7.5 0 1 0 15 0 a7.5 7.5 0 1 0 -15 0zM174.18 420.2 a7.5 7.5 0 1 0 15 0 a7.5 7.5 0 1 0 -15 0zM239.13 457.7 a7.5 7.5 0 1 0 15 0 a7.5 7.5 0 1 0 -15 0zM239.13 532.7 a7.5 7.5 0 1 0 15 0 a7.5 7.5 0 1 0 -15 0zM174.18 570.2 a7.5 7.5 0 1 0 15 0 a7.5 7.5 0 1 0 -15 0zM109.22 532.7 a7.5 7.5 0 1 0 15 0 a7.5 7.5 0 1 0 -15 0zM109.22 457.7 a7.5 7.5 0 1 0 15 0 a7.5 7.5 0 1 0 -15 0zM304.08 570.2 a7.5 7.5 0 1 0 15 0 a7.5 7.5 0 1 0 -15 0zM304.08 645.2 a7.5 7.5 0 1 0 15 0 a7.5 7.5 0 1 0 -15 0zM239.13 682.7 a7.5 7.5 0 1 0 15 0 a7.5 7.5 0 1 0 -15 0zM174.18 645.2 a7.5 7.5 0 1 0 15 0 a7.5 7.5 0 1 0 -15 0zM498.95 82.7 a7.5 7.5 0 1 0 15 0 a7.5 7.5 0 1 0 -15 0zM563.9 120.2 a7.5 7.5 0 1 0 15 0 a7.5 7.5 0 1 0 -15 0zM563.9 195.2 a7.5 7.5 0 1 0 15 0 a7.5 7.5 0 1 0 -15 0zM498.95 232.7 a7.5 7.5 0 1 0 15 0 a7.5 7.5 0 1 0 -15 0zM433.99 195.2 a7.5 7.5 0 1 0 15 0 a7.5 7.5 0 1 0 -15 0zM433.99 120.2 a7.5 7.5 0 1 0 15 0 a7.5 7.5 0 1 0 -15 0zM498.95 307.7 a7.5 7.5 0 1 0 15 0 a7.5 7.5 0 1 0 -15 0zM563.9 345.2 a7.5 7.5 0 1 0 15 0 a7.5 7.5 0 1 0 -15 0zM563.9 420.2 a7.5 7.5 0 1 0 15 0 a7.5 7.5 0 1 0 -15 0zM498.95 457.7 a7.5 7.5 0 1 0 15 0 a7.5 7.5 0 1 0 -15 0zM433.99 420.2 a7.5 7.5 0 1 0 15 0 a7.5 7.5 0 1 0 -15 0zM433.99 345.2 a7.5 7.5 0 1 0 15 0 a7.5 7.5 0 1 0 -15 0zM498.95 532.7 a7.5 7.5 0 1 0 15 0 a7.5 7.5 0 1 0 -15 0zM433.99 570.2 a7.5 7.5 0 1 0 15 0 a7.5 7.5 0 1 0 -15 0zM369.04 532.7 a7.5 7.5 0 1 0 15 0 a7.5 7.5 0 1 0 -15 0zM369.04 457.7 a7.5 7.5 0 1 0 15 0 a7.5 7.5 0 1 0 -15 0zM628.85 232.7 a7.5 7.5 0 1 0 15 0 a7.5 7.5 0 1 0 -15 0zM628.85 307.7 a7.5 7.5 0 1 0 15 0 a7.5 7.5 0 1 0 -15 0zM693.81 345.2 a7.5 7.5 0 1 0 15 0 a7.5 7.5 0 1 0 -15 0zM693.81 420.2 a7.5 7.5 0 1 0 15 0 a7.5 7.5 0 1 0 -15 0zM628.85 457.7 a7.5 7.5 0 1 0 15 0 a7.5 7.5 0 1 0 -15 0zM628.85 532.7 a7.5 7.5 0 1 0 15 0 a7.5 7.5 0 1 0 -15 0zM563.9 570.2 a7.5 7.5 0 1 0 15 0 a7.5 7.5 0 1 0 -15 0zM693.81 570.2 a7.5 7.5 0 1 0 15 0 a7.5 7.5 0 1 0 -15 0zM693.81 645.2 a7.5 7.5 0 1 0 15 0 a7.5 7.5 0 1 0 -15 0zM628.85 682.7 a7.5 7.5 0 1 0 15 0 a7.5 7.5 0 1 0 -15 0zM563.9 645.2 a7.5 7.5 0 1 0 15 0 a7.5 7.5 0 1 0 -15 0zM693.81 -29.8 a7.5 7.5 0 1 0 15 0 a7.5 7.5 0 1 0 -15 0zM758.76 7.7 a7.5 7.5 0 1 0 15 0 a7.5 7.5 0 1 0 -15 0zM758.76 82.7 a7.5 7.5 0 1 0 15 0 a7.5 7.5 0 1 0 -15 0zM693.81 120.2 a7.5 7.5 0 1 0 15 0 a7.5 7.5 0 1 0 -15 0zM628.85 82.7 a7.5 7.5 0 1 0 15 0 a7.5 7.5 0 1 0 -15 0zM628.85 7.7 a7.5 7.5 0 1 0 15 0 a7.5 7.5 0 1 0 -15 0zM823.72 120.2 a7.5 7.5 0 1 0 15 0 a7.5 7.5 0 1 0 -15 0zM823.72 195.2 a7.5 7.5 0 1 0 15 0 a7.5 7.5 0 1 0 -15 0zM758.76 232.7 a7.5 7.5 0 1 0 15 0 a7.5 7.5 0 1 0 -15 0zM693.81 195.2 a7.5 7.5 0 1 0 15 0 a7.5 7.5 0 1 0 -15 0zM758.76 307.7 a7.5 7.5 0 1 0 15 0 a7.5 7.5 0 1 0 -15 0zM823.72 345.2 a7.5 7.5 0 1 0 15 0 a7.5 7.5 0 1 0 -15 0zM823.72 420.2 a7.5 7.5 0 1 0 15 0 a7.5 7.5 0 1 0 -15 0zM758.76 457.7 a7.5 7.5 0 1 0 15 0 a7.5 7.5 0 1 0 -15 0zM758.76 532.7 a7.5 7.5 0 1 0 15 0 a7.5 7.5 0 1 0 -15 0zM823.72 570.2 a7.5 7.5 0 1 0 15 0 a7.5 7.5 0 1 0 -15 0zM823.72 645.2 a7.5 7.5 0 1 0 15 0 a7.5 7.5 0 1 0 -15 0zM758.76 682.7 a7.5 7.5 0 1 0 15 0 a7.5 7.5 0 1 0 -15 0zM888.67 532.7 a7.5 7.5 0 1 0 15 0 a7.5 7.5 0 1 0 -15 0zM953.62 570.2 a7.5 7.5 0 1 0 15 0 a7.5 7.5 0 1 0 -15 0zM953.62 645.2 a7.5 7.5 0 1 0 15 0 a7.5 7.5 0 1 0 -15 0zM888.67 682.7 a7.5 7.5 0 1 0 15 0 a7.5 7.5 0 1 0 -15 0zM823.71 645.2 a7.5 7.5 0 1 0 15 0 a7.5 7.5 0 1 0 -15 0zM823.71 570.2 a7.5 7.5 0 1 0 15 0 a7.5 7.5 0 1 0 -15 0zM953.62 -29.8 a7.5 7.5 0 1 0 15 0 a7.5 7.5 0 1 0 -15 0zM1018.58 7.7 a7.5 7.5 0 1 0 15 0 a7.5 7.5 0 1 0 -15 0zM1018.58 82.7 a7.5 7.5 0 1 0 15 0 a7.5 7.5 0 1 0 -15 0zM953.62 120.2 a7.5 7.5 0 1 0 15 0 a7.5 7.5 0 1 0 -15 0zM888.67 82.7 a7.5 7.5 0 1 0 15 0 a7.5 7.5 0 1 0 -15 0zM888.67 7.7 a7.5 7.5 0 1 0 15 0 a7.5 7.5 0 1 0 -15 0zM953.62 420.2 a7.5 7.5 0 1 0 15 0 a7.5 7.5 0 1 0 -15 0zM1018.58 457.7 a7.5 7.5 0 1 0 15 0 a7.5 7.5 0 1 0 -15 0zM1018.58 532.7 a7.5 7.5 0 1 0 15 0 a7.5 7.5 0 1 0 -15 0zM888.67 457.7 a7.5 7.5 0 1 0 15 0 a7.5 7.5 0 1 0 -15 0zM1083.53 570.2 a7.5 7.5 0 1 0 15 0 a7.5 7.5 0 1 0 -15 0zM1083.53 645.2 a7.5 7.5 0 1 0 15 0 a7.5 7.5 0 1 0 -15 0zM1018.58 682.7 a7.5 7.5 0 1 0 15 0 a7.5 7.5 0 1 0 -15 0zM1083.53 -29.8 a7.5 7.5 0 1 0 15 0 a7.5 7.5 0 1 0 -15 0zM1148.48 7.7 a7.5 7.5 0 1 0 15 0 a7.5 7.5 0 1 0 -15 0zM1148.48 82.7 a7.5 7.5 0 1 0 15 0 a7.5 7.5 0 1 0 -15 0zM1083.53 120.2 a7.5 7.5 0 1 0 15 0 a7.5 7.5 0 1 0 -15 0zM1213.44 120.2 a7.5 7.5 0 1 0 15 0 a7.5 7.5 0 1 0 -15 0zM1213.44 195.2 a7.5 7.5 0 1 0 15 0 a7.5 7.5 0 1 0 -15 0zM1148.48 232.7 a7.5 7.5 0 1 0 15 0 a7.5 7.5 0 1 0 -15 0zM1083.53 195.2 a7.5 7.5 0 1 0 15 0 a7.5 7.5 0 1 0 -15 0zM1083.53 420.2 a7.5 7.5 0 1 0 15 0 a7.5 7.5 0 1 0 -15 0zM1148.48 457.7 a7.5 7.5 0 1 0 15 0 a7.5 7.5 0 1 0 -15 0zM1148.48 532.7 a7.5 7.5 0 1 0 15 0 a7.5 7.5 0 1 0 -15 0zM1213.44 570.2 a7.5 7.5 0 1 0 15 0 a7.5 7.5 0 1 0 -15 0zM1213.44 645.2 a7.5 7.5 0 1 0 15 0 a7.5 7.5 0 1 0 -15 0zM1148.48 682.7 a7.5 7.5 0 1 0 15 0 a7.5 7.5 0 1 0 -15 0zM1213.44 -29.8 a7.5 7.5 0 1 0 15 0 a7.5 7.5 0 1 0 -15 0zM1278.39 7.7 a7.5 7.5 0 1 0 15 0 a7.5 7.5 0 1 0 -15 0zM1278.39 82.7 a7.5 7.5 0 1 0 15 0 a7.5 7.5 0 1 0 -15 0zM1278.39 532.7 a7.5 7.5 0 1 0 15 0 a7.5 7.5 0 1 0 -15 0zM1343.34 570.2 a7.5 7.5 0 1 0 15 0 a7.5 7.5 0 1 0 -15 0zM1343.34 645.2 a7.5 7.5 0 1 0 15 0 a7.5 7.5 0 1 0 -15 0zM1278.39 682.7 a7.5 7.5 0 1 0 15 0 a7.5 7.5 0 1 0 -15 0zM1343.35 -29.8 a7.5 7.5 0 1 0 15 0 a7.5 7.5 0 1 0 -15 0zM1408.3 7.7 a7.5 7.5 0 1 0 15 0 a7.5 7.5 0 1 0 -15 0zM1408.3 82.7 a7.5 7.5 0 1 0 15 0 a7.5 7.5 0 1 0 -15 0zM1343.35 120.2 a7.5 7.5 0 1 0 15 0 a7.5 7.5 0 1 0 -15 0zM1473.25 120.2 a7.5 7.5 0 1 0 15 0 a7.5 7.5 0 1 0 -15 0zM1473.25 195.2 a7.5 7.5 0 1 0 15 0 a7.5 7.5 0 1 0 -15 0zM1408.3 232.7 a7.5 7.5 0 1 0 15 0 a7.5 7.5 0 1 0 -15 0zM1343.35 195.2 a7.5 7.5 0 1 0 15 0 a7.5 7.5 0 1 0 -15 0zM1408.3 307.7 a7.5 7.5 0 1 0 15 0 a7.5 7.5 0 1 0 -15 0zM1473.25 345.2 a7.5 7.5 0 1 0 15 0 a7.5 7.5 0 1 0 -15 0zM1473.25 420.2 a7.5 7.5 0 1 0 15 0 a7.5 7.5 0 1 0 -15 0zM1408.3 457.7 a7.5 7.5 0 1 0 15 0 a7.5 7.5 0 1 0 -15 0zM1343.35 420.2 a7.5 7.5 0 1 0 15 0 a7.5 7.5 0 1 0 -15 0zM1343.35 345.2 a7.5 7.5 0 1 0 15 0 a7.5 7.5 0 1 0 -15 0zM1408.3 532.7 a7.5 7.5 0 1 0 15 0 a7.5 7.5 0 1 0 -15 0zM1343.35 570.2 a7.5 7.5 0 1 0 15 0 a7.5 7.5 0 1 0 -15 0zM1278.39 457.7 a7.5 7.5 0 1 0 15 0 a7.5 7.5 0 1 0 -15 0zM1538.21 82.7 a7.5 7.5 0 1 0 15 0 a7.5 7.5 0 1 0 -15 0zM1603.16 120.2 a7.5 7.5 0 1 0 15 0 a7.5 7.5 0 1 0 -15 0zM1603.16 195.2 a7.5 7.5 0 1 0 15 0 a7.5 7.5 0 1 0 -15 0zM1538.21 232.7 a7.5 7.5 0 1 0 15 0 a7.5 7.5 0 1 0 -15 0zM1538.21 307.7 a7.5 7.5 0 1 0 15 0 a7.5 7.5 0 1 0 -15 0zM1603.16 345.2 a7.5 7.5 0 1 0 15 0 a7.5 7.5 0 1 0 -15 0zM1603.16 420.2 a7.5 7.5 0 1 0 15 0 a7.5 7.5 0 1 0 -15 0zM1538.21 457.7 a7.5 7.5 0 1 0 15 0 a7.5 7.5 0 1 0 -15 0zM1538.21 532.7 a7.5 7.5 0 1 0 15 0 a7.5 7.5 0 1 0 -15 0zM1473.25 570.2 a7.5 7.5 0 1 0 15 0 a7.5 7.5 0 1 0 -15 0z" fill="rgba(0, 1, 3, 1)"></path><path d="M10.27 27.34L21.53 33.84L21.53 46.84L10.27 53.34L-0.99 46.84L-0.99 33.84zM21.53 46.84L32.79 53.34L32.79 66.34L21.53 72.84L10.27 66.34L10.27 53.34zM10.27 183.34L21.53 189.84L21.53 202.84L10.27 209.34L-0.99 202.84L-0.99 189.84zM21.53 358.84L32.79 365.34L32.79 378.34L21.53 384.84L10.27 378.34L10.27 365.34zM10.27 495.34L21.53 501.84L21.53 514.84L10.27 521.34L-0.99 514.84L-0.99 501.84zM10.27 534.34L21.53 540.84L21.53 553.84L10.27 560.34L-0.99 553.84L-0.99 540.84zM21.53 553.84L32.79 560.34L32.79 573.34L21.53 579.84L10.27 573.34L10.27 560.34zM32.79 -11.66L44.05 -5.16L44.05 7.84L32.79 14.34L21.53 7.84L21.53 -5.16zM32.79 105.34L44.05 111.84L44.05 124.84L32.79 131.34L21.53 124.84L21.53 111.84zM32.79 144.34L44.05 150.84L44.05 163.84L32.79 170.34L21.53 163.84L21.53 150.84zM44.05 163.84L55.3 170.34L55.3 183.34L44.05 189.84L32.79 183.34L32.79 170.34zM44.05 319.84L55.3 326.34L55.3 339.34L44.05 345.84L32.79 339.34L32.79 326.34zM44.05 397.84L55.3 404.34L55.3 417.34L44.05 423.84L32.79 417.34L32.79 404.34zM44.05 475.84L55.3 482.34L55.3 495.34L44.05 501.84L32.79 495.34L32.79 482.34zM32.79 495.34L44.05 501.84L44.05 514.84L32.79 521.34L21.53 514.84L21.53 501.84zM44.05 553.84L55.3 560.34L55.3 573.34L44.05 579.84L32.79 573.34L32.79 560.34zM66.56 7.84L77.82 14.34L77.82 27.34L66.56 33.84L55.3 27.34L55.3 14.34zM55.3 66.34L66.56 72.84L66.56 85.84L55.3 92.34L44.05 85.84L44.05 72.84zM66.56 124.84L77.82 131.34L77.82 144.34L66.56 150.84L55.3 144.34L55.3 131.34zM66.56 163.84L77.82 170.34L77.82 183.34L66.56 189.84L55.3 183.34L55.3 170.34zM55.3 183.34L66.56 189.84L66.56 202.84L55.3 209.34L44.05 202.84L44.05 189.84zM66.56 241.84L77.82 248.34L77.82 261.34L66.56 267.84L55.3 261.34L55.3 248.34zM55.3 261.34L66.56 267.84L66.56 280.84L55.3 287.34L44.05 280.84L44.05 267.84zM55.3 300.34L66.56 306.84L66.56 319.84L55.3 326.34L44.05 319.84L44.05 306.84zM66.56 397.84L77.82 404.34L77.82 417.34L66.56 423.84L55.3 417.34L55.3 404.34zM55.3 417.34L66.56 423.84L66.56 436.84L55.3 443.34L44.05 436.84L44.05 423.84zM55.3 495.34L66.56 501.84L66.56 514.84L55.3 521.34L44.05 514.84L44.05 501.84zM66.56 553.84L77.82 560.34L77.82 573.34L66.56 579.84L55.3 573.34L55.3 560.34zM89.08 124.84L100.34 131.34L100.34 144.34L89.08 150.84L77.82 144.34L77.82 131.34zM77.82 144.34L89.08 150.84L89.08 163.84L77.82 170.34L66.56 163.84L66.56 150.84zM89.08 163.84L100.34 170.34L100.34 183.34L89.08 189.84L77.82 183.34L77.82 170.34zM89.08 241.84L100.34 248.34L100.34 261.34L89.08 267.84L77.82 261.34L77.82 248.34zM89.08 319.84L100.34 326.34L100.34 339.34L89.08 345.84L77.82 339.34L77.82 326.34zM89.08 436.84L100.34 443.34L100.34 456.34L89.08 462.84L77.82 456.34L77.82 443.34zM77.82 456.34L89.08 462.84L89.08 475.84L77.82 482.34L66.56 475.84L66.56 462.84zM89.08 475.84L100.34 482.34L100.34 495.34L89.08 501.84L77.82 495.34L77.82 482.34zM89.08 514.84L100.34 521.34L100.34 534.34L89.08 540.84L77.82 534.34L77.82 521.34zM100.34 27.34L111.6 33.84L111.6 46.84L100.34 53.34L89.08 46.84L89.08 33.84zM111.6 85.84L122.86 92.34L122.86 105.34L111.6 111.84L100.34 105.34L100.34 92.34zM111.6 163.84L122.86 170.34L122.86 183.34L111.6 189.84L100.34 183.34L100.34 170.34zM111.6 202.84L122.86 209.34L122.86 222.34L111.6 228.84L100.34 222.34L100.34 209.34zM111.6 280.84L122.86 287.34L122.86 300.34L111.6 306.84L100.34 300.34L100.34 287.34zM100.34 339.34L111.6 345.84L111.6 358.84L100.34 365.34L89.08 358.84L89.08 345.84zM100.34 417.34L111.6 423.84L111.6 436.84L100.34 443.34L89.08 436.84L89.08 423.84zM100.34 495.34L111.6 501.84L111.6 514.84L100.34 521.34L89.08 514.84L89.08 501.84zM111.6 553.84L122.86 560.34L122.86 573.34L111.6 579.84L100.34 573.34L100.34 560.34zM122.86 66.34L134.12 72.84L134.12 85.84L122.86 92.34L111.6 85.84L111.6 72.84zM134.12 85.84L145.37 92.34L145.37 105.34L134.12 111.84L122.86 105.34L122.86 92.34zM122.86 105.34L134.12 111.84L134.12 124.84L122.86 131.34L111.6 124.84L111.6 111.84zM122.86 261.34L134.12 267.84L134.12 280.84L122.86 287.34L111.6 280.84L111.6 267.84zM134.12 280.84L145.37 287.34L145.37 300.34L134.12 306.84L122.86 300.34L122.86 287.34zM122.86 300.34L134.12 306.84L134.12 319.84L122.86 326.34L111.6 319.84L111.6 306.84zM122.86 339.34L134.12 345.84L134.12 358.84L122.86 365.34L111.6 358.84L111.6 345.84zM134.12 358.84L145.37 365.34L145.37 378.34L134.12 384.84L122.86 378.34L122.86 365.34zM134.12 397.84L145.37 404.34L145.37 417.34L134.12 423.84L122.86 417.34L122.86 404.34zM134.12 436.84L145.37 443.34L145.37 456.34L134.12 462.84L122.86 456.34L122.86 443.34zM122.86 534.34L134.12 540.84L134.12 553.84L122.86 560.34L111.6 553.84L111.6 540.84zM145.37 -11.66L156.63 -5.16L156.63 7.84L145.37 14.34L134.12 7.84L134.12 -5.16zM145.37 27.34L156.63 33.84L156.63 46.84L145.37 53.34L134.12 46.84L134.12 33.84zM156.63 46.84L167.89 53.34L167.89 66.34L156.63 72.84L145.37 66.34L145.37 53.34zM156.63 85.84L167.89 92.34L167.89 105.34L156.63 111.84L145.37 105.34L145.37 92.34zM145.37 105.34L156.63 111.84L156.63 124.84L145.37 131.34L134.12 124.84L134.12 111.84zM145.37 144.34L156.63 150.84L156.63 163.84L145.37 170.34L134.12 163.84L134.12 150.84zM156.63 163.84L167.89 170.34L167.89 183.34L156.63 189.84L145.37 183.34L145.37 170.34zM145.37 261.34L156.63 267.84L156.63 280.84L145.37 287.34L134.12 280.84L134.12 267.84zM145.37 339.34L156.63 345.84L156.63 358.84L145.37 365.34L134.12 358.84L134.12 345.84zM156.63 436.84L167.89 443.34L167.89 456.34L156.63 462.84L145.37 456.34L145.37 443.34zM156.63 514.84L167.89 521.34L167.89 534.34L156.63 540.84L145.37 534.34L145.37 521.34zM156.63 553.84L167.89 560.34L167.89 573.34L156.63 579.84L145.37 573.34L145.37 560.34zM179.15 7.84L190.41 14.34L190.41 27.34L179.15 33.84L167.89 27.34L167.89 14.34zM167.89 183.34L179.15 189.84L179.15 202.84L167.89 209.34L156.63 202.84L156.63 189.84zM179.15 280.84L190.41 287.34L190.41 300.34L179.15 306.84L167.89 300.34L167.89 287.34zM179.15 319.84L190.41 326.34L190.41 339.34L179.15 345.84L167.89 339.34L167.89 326.34zM167.89 339.34L179.15 345.84L179.15 358.84L167.89 365.34L156.63 358.84L156.63 345.84zM179.15 358.84L190.41 365.34L190.41 378.34L179.15 384.84L167.89 378.34L167.89 365.34zM179.15 397.84L190.41 404.34L190.41 417.34L179.15 423.84L167.89 417.34L167.89 404.34zM190.41 27.34L201.67 33.84L201.67 46.84L190.41 53.34L179.15 46.84L179.15 33.84zM201.67 46.84L212.93 53.34L212.93 66.34L201.67 72.84L190.41 66.34L190.41 53.34zM190.41 144.34L201.67 150.84L201.67 163.84L190.41 170.34L179.15 163.84L179.15 150.84zM201.67 241.84L212.93 248.34L212.93 261.34L201.67 267.84L190.41 261.34L190.41 248.34zM201.67 358.84L212.93 365.34L212.93 378.34L201.67 384.84L190.41 378.34L190.41 365.34zM190.41 378.34L201.67 384.84L201.67 397.84L190.41 404.34L179.15 397.84L179.15 384.84zM201.67 514.84L212.93 521.34L212.93 534.34L201.67 540.84L190.41 534.34L190.41 521.34zM212.93 105.34L224.18 111.84L224.18 124.84L212.93 131.34L201.67 124.84L201.67 111.84zM212.93 144.34L224.18 150.84L224.18 163.84L212.93 170.34L201.67 163.84L201.67 150.84zM212.93 261.34L224.18 267.84L224.18 280.84L212.93 287.34L201.67 280.84L201.67 267.84zM212.93 339.34L224.18 345.84L224.18 358.84L212.93 365.34L201.67 358.84L201.67 345.84zM224.18 358.84L235.44 365.34L235.44 378.34L224.18 384.84L212.93 378.34L212.93 365.34zM212.93 378.34L224.18 384.84L224.18 397.84L212.93 404.34L201.67 397.84L201.67 384.84zM224.18 475.84L235.44 482.34L235.44 495.34L224.18 501.84L212.93 495.34L212.93 482.34zM212.93 495.34L224.18 501.84L224.18 514.84L212.93 521.34L201.67 514.84L201.67 501.84zM212.93 534.34L224.18 540.84L224.18 553.84L212.93 560.34L201.67 553.84L201.67 540.84zM224.18 553.84L235.44 560.34L235.44 573.34L224.18 579.84L212.93 573.34L212.93 560.34zM235.44 66.34L246.7 72.84L246.7 85.84L235.44 92.34L224.18 85.84L224.18 72.84zM246.7 85.84L257.96 92.34L257.96 105.34L246.7 111.84L235.44 105.34L235.44 92.34zM246.7 124.84L257.96 131.34L257.96 144.34L246.7 150.84L235.44 144.34L235.44 131.34zM246.7 319.84L257.96 326.34L257.96 339.34L246.7 345.84L235.44 339.34L235.44 326.34zM235.44 339.34L246.7 345.84L246.7 358.84L235.44 365.34L224.18 358.84L224.18 345.84zM235.44 378.34L246.7 384.84L246.7 397.84L235.44 404.34L224.18 397.84L224.18 384.84zM235.44 456.34L246.7 462.84L246.7 475.84L235.44 482.34L224.18 475.84L224.18 462.84zM246.7 475.84L257.96 482.34L257.96 495.34L246.7 501.84L235.44 495.34L235.44 482.34zM235.44 495.34L246.7 501.84L246.7 514.84L235.44 521.34L224.18 514.84L224.18 501.84zM246.7 553.84L257.96 560.34L257.96 573.34L246.7 579.84L235.44 573.34L235.44 560.34zM257.96 27.34L269.22 33.84L269.22 46.84L257.96 53.34L246.7 46.84L246.7 33.84zM257.96 66.34L269.22 72.84L269.22 85.84L257.96 92.34L246.7 85.84L246.7 72.84zM269.22 202.84L280.48 209.34L280.48 222.34L269.22 228.84L257.96 222.34L257.96 209.34zM269.22 280.84L280.48 287.34L280.48 300.34L269.22 306.84L257.96 300.34L257.96 287.34zM257.96 534.34L269.22 540.84L269.22 553.84L257.96 560.34L246.7 553.84L246.7 540.84zM269.22 553.84L280.48 560.34L280.48 573.34L269.22 579.84L257.96 573.34L257.96 560.34zM291.74 46.84L302.99 53.34L302.99 66.34L291.74 72.84L280.48 66.34L280.48 53.34zM280.48 105.34L291.74 111.84L291.74 124.84L280.48 131.34L269.22 124.84L269.22 111.84zM291.74 202.84L302.99 209.34L302.99 222.34L291.74 228.84L280.48 222.34L280.48 209.34zM291.74 241.84L302.99 248.34L302.99 261.34L291.74 267.84L280.48 261.34L280.48 248.34zM291.74 280.84L302.99 287.34L302.99 300.34L291.74 306.84L280.48 300.34L280.48 287.34zM280.48 300.34L291.74 306.84L291.74 319.84L280.48 326.34L269.22 319.84L269.22 306.84zM280.48 417.34L291.74 423.84L291.74 436.84L280.48 443.34L269.22 436.84L269.22 423.84zM280.48 456.34L291.74 462.84L291.74 475.84L280.48 482.34L269.22 475.84L269.22 462.84zM291.74 475.84L302.99 482.34L302.99 495.34L291.74 501.84L280.48 495.34L280.48 482.34zM280.48 495.34L291.74 501.84L291.74 514.84L280.48 521.34L269.22 514.84L269.22 501.84zM291.74 553.84L302.99 560.34L302.99 573.34L291.74 579.84L280.48 573.34L280.48 560.34zM314.25 46.84L325.51 53.34L325.51 66.34L314.25 72.84L302.99 66.34L302.99 53.34zM314.25 85.84L325.51 92.34L325.51 105.34L314.25 111.84L302.99 105.34L302.99 92.34zM302.99 105.34L314.25 111.84L314.25 124.84L302.99 131.34L291.74 124.84L291.74 111.84zM314.25 163.84L325.51 170.34L325.51 183.34L314.25 189.84L302.99 183.34L302.99 170.34zM302.99 222.34L314.25 228.84L314.25 241.84L302.99 248.34L291.74 241.84L291.74 228.84zM314.25 241.84L325.51 248.34L325.51 261.34L314.25 267.84L302.99 261.34L302.99 248.34zM302.99 300.34L314.25 306.84L314.25 319.84L302.99 326.34L291.74 319.84L291.74 306.84zM314.25 319.84L325.51 326.34L325.51 339.34L314.25 345.84L302.99 339.34L302.99 326.34zM302.99 456.34L314.25 462.84L314.25 475.84L302.99 482.34L291.74 475.84L291.74 462.84zM314.25 475.84L325.51 482.34L325.51 495.34L314.25 501.84L302.99 495.34L302.99 482.34zM325.51 -11.66L336.77 -5.16L336.77 7.84L325.51 14.34L314.25 7.84L314.25 -5.16zM336.77 7.84L348.03 14.34L348.03 27.34L336.77 33.84L325.51 27.34L325.51 14.34zM336.77 85.84L348.03 92.34L348.03 105.34L336.77 111.84L325.51 105.34L325.51 92.34zM325.51 105.34L336.77 111.84L336.77 124.84L325.51 131.34L314.25 124.84L314.25 111.84zM325.51 183.34L336.77 189.84L336.77 202.84L325.51 209.34L314.25 202.84L314.25 189.84zM336.77 241.84L348.03 248.34L348.03 261.34L336.77 267.84L325.51 261.34L325.51 248.34zM325.51 300.34L336.77 306.84L336.77 319.84L325.51 326.34L314.25 319.84L314.25 306.84zM336.77 319.84L348.03 326.34L348.03 339.34L336.77 345.84L325.51 339.34L325.51 326.34zM325.51 378.34L336.77 384.84L336.77 397.84L325.51 404.34L314.25 397.84L314.25 384.84zM336.77 436.84L348.03 443.34L348.03 456.34L336.77 462.84L325.51 456.34L325.51 443.34zM325.51 456.34L336.77 462.84L336.77 475.84L325.51 482.34L314.25 475.84L314.25 462.84zM325.51 495.34L336.77 501.84L336.77 514.84L325.51 521.34L314.25 514.84L314.25 501.84zM325.51 534.34L336.77 540.84L336.77 553.84L325.51 560.34L314.25 553.84L314.25 540.84zM348.03 -11.66L359.29 -5.16L359.29 7.84L348.03 14.34L336.77 7.84L336.77 -5.16zM348.03 27.34L359.29 33.84L359.29 46.84L348.03 53.34L336.77 46.84L336.77 33.84zM348.03 105.34L359.29 111.84L359.29 124.84L348.03 131.34L336.77 124.84L336.77 111.84zM359.29 124.84L370.55 131.34L370.55 144.34L359.29 150.84L348.03 144.34L348.03 131.34zM359.29 163.84L370.55 170.34L370.55 183.34L359.29 189.84L348.03 183.34L348.03 170.34zM348.03 183.34L359.29 189.84L359.29 202.84L348.03 209.34L336.77 202.84L336.77 189.84zM348.03 222.34L359.29 228.84L359.29 241.84L348.03 248.34L336.77 241.84L336.77 228.84zM359.29 241.84L370.55 248.34L370.55 261.34L359.29 267.84L348.03 261.34L348.03 248.34zM359.29 280.84L370.55 287.34L370.55 300.34L359.29 306.84L348.03 300.34L348.03 287.34zM370.55 27.34L381.81 33.84L381.81 46.84L370.55 53.34L359.29 46.84L359.29 33.84zM370.55 66.34L381.81 72.84L381.81 85.84L370.55 92.34L359.29 85.84L359.29 72.84zM370.55 105.34L381.81 111.84L381.81 124.84L370.55 131.34L359.29 124.84L359.29 111.84zM381.81 163.84L393.06 170.34L393.06 183.34L381.81 189.84L370.55 183.34L370.55 170.34zM381.81 202.84L393.06 209.34L393.06 222.34L381.81 228.84L370.55 222.34L370.55 209.34zM370.55 222.34L381.81 228.84L381.81 241.84L370.55 248.34L359.29 241.84L359.29 228.84zM381.81 241.84L393.06 248.34L393.06 261.34L381.81 267.84L370.55 261.34L370.55 248.34zM381.81 319.84L393.06 326.34L393.06 339.34L381.81 345.84L370.55 339.34L370.55 326.34zM370.55 339.34L381.81 345.84L381.81 358.84L370.55 365.34L359.29 358.84L359.29 345.84zM370.55 378.34L381.81 384.84L381.81 397.84L370.55 404.34L359.29 397.84L359.29 384.84zM381.81 514.84L393.06 521.34L393.06 534.34L381.81 540.84L370.55 534.34L370.55 521.34zM381.81 553.84L393.06 560.34L393.06 573.34L381.81 579.84L370.55 573.34L370.55 560.34zM393.06 27.34L404.32 33.84L404.32 46.84L393.06 53.34L381.81 46.84L381.81 33.84zM393.06 105.34L404.32 111.84L404.32 124.84L393.06 131.34L381.81 124.84L381.81 111.84zM393.06 144.34L404.32 150.84L404.32 163.84L393.06 170.34L381.81 163.84L381.81 150.84zM404.32 241.84L415.58 248.34L415.58 261.34L404.32 267.84L393.06 261.34L393.06 248.34zM393.06 300.34L404.32 306.84L404.32 319.84L393.06 326.34L381.81 319.84L381.81 306.84zM404.32 319.84L415.58 326.34L415.58 339.34L404.32 345.84L393.06 339.34L393.06 326.34zM393.06 339.34L404.32 345.84L404.32 358.84L393.06 365.34L381.81 358.84L381.81 345.84zM404.32 397.84L415.58 404.34L415.58 417.34L404.32 423.84L393.06 417.34L393.06 404.34zM426.84 124.84L438.1 131.34L438.1 144.34L426.84 150.84L415.58 144.34L415.58 131.34zM426.84 163.84L438.1 170.34L438.1 183.34L426.84 189.84L415.58 183.34L415.58 170.34zM426.84 241.84L438.1 248.34L438.1 261.34L426.84 267.84L415.58 261.34L415.58 248.34zM426.84 358.84L438.1 365.34L438.1 378.34L426.84 384.84L415.58 378.34L415.58 365.34zM426.84 397.84L438.1 404.34L438.1 417.34L426.84 423.84L415.58 417.34L415.58 404.34zM415.58 417.34L426.84 423.84L426.84 436.84L415.58 443.34L404.32 436.84L404.32 423.84zM426.84 436.84L438.1 443.34L438.1 456.34L426.84 462.84L415.58 456.34L415.58 443.34zM426.84 514.84L438.1 521.34L438.1 534.34L426.84 540.84L415.58 534.34L415.58 521.34zM449.36 7.84L460.62 14.34L460.62 27.34L449.36 33.84L438.1 27.34L438.1 14.34zM438.1 27.34L449.36 33.84L449.36 46.84L438.1 53.34L426.84 46.84L426.84 33.84zM449.36 46.84L460.62 53.34L460.62 66.34L449.36 72.84L438.1 66.34L438.1 53.34zM449.36 163.84L460.62 170.34L460.62 183.34L449.36 189.84L438.1 183.34L438.1 170.34zM438.1 222.34L449.36 228.84L449.36 241.84L438.1 248.34L426.84 241.84L426.84 228.84zM449.36 280.84L460.62 287.34L460.62 300.34L449.36 306.84L438.1 300.34L438.1 287.34zM438.1 339.34L449.36 345.84L449.36 358.84L438.1 365.34L426.84 358.84L426.84 345.84zM438.1 417.34L449.36 423.84L449.36 436.84L438.1 443.34L426.84 436.84L426.84 423.84zM438.1 456.34L449.36 462.84L449.36 475.84L438.1 482.34L426.84 475.84L426.84 462.84zM460.62 27.34L471.87 33.84L471.87 46.84L460.62 53.34L449.36 46.84L449.36 33.84zM471.87 46.84L483.13 53.34L483.13 66.34L471.87 72.84L460.62 66.34L460.62 53.34zM460.62 183.34L471.87 189.84L471.87 202.84L460.62 209.34L449.36 202.84L449.36 189.84zM460.62 222.34L471.87 228.84L471.87 241.84L460.62 248.34L449.36 241.84L449.36 228.84zM471.87 319.84L483.13 326.34L483.13 339.34L471.87 345.84L460.62 339.34L460.62 326.34zM460.62 495.34L471.87 501.84L471.87 514.84L460.62 521.34L449.36 514.84L449.36 501.84zM483.13 66.34L494.39 72.84L494.39 85.84L483.13 92.34L471.87 85.84L471.87 72.84zM494.39 124.84L505.65 131.34L505.65 144.34L494.39 150.84L483.13 144.34L483.13 131.34zM483.13 261.34L494.39 267.84L494.39 280.84L483.13 287.34L471.87 280.84L471.87 267.84zM483.13 300.34L494.39 306.84L494.39 319.84L483.13 326.34L471.87 319.84L471.87 306.84zM483.13 339.34L494.39 345.84L494.39 358.84L483.13 365.34L471.87 358.84L471.87 345.84zM494.39 358.84L505.65 365.34L505.65 378.34L494.39 384.84L483.13 378.34L483.13 365.34zM494.39 436.84L505.65 443.34L505.65 456.34L494.39 462.84L483.13 456.34L483.13 443.34zM505.65 -11.66L516.91 -5.16L516.91 7.84L505.65 14.34L494.39 7.84L494.39 -5.16zM505.65 66.34L516.91 72.84L516.91 85.84L505.65 92.34L494.39 85.84L494.39 72.84zM516.91 124.84L528.17 131.34L528.17 144.34L516.91 150.84L505.65 144.34L505.65 131.34zM505.65 222.34L516.91 228.84L516.91 241.84L505.65 248.34L494.39 241.84L494.39 228.84zM505.65 339.34L516.91 345.84L516.91 358.84L505.65 365.34L494.39 358.84L494.39 345.84zM505.65 378.34L516.91 384.84L516.91 397.84L505.65 404.34L494.39 397.84L494.39 384.84zM516.91 436.84L528.17 443.34L528.17 456.34L516.91 462.84L505.65 456.34L505.65 443.34zM505.65 456.34L516.91 462.84L516.91 475.84L505.65 482.34L494.39 475.84L494.39 462.84zM528.17 105.34L539.43 111.84L539.43 124.84L528.17 131.34L516.91 124.84L516.91 111.84zM528.17 222.34L539.43 228.84L539.43 241.84L528.17 248.34L516.91 241.84L516.91 228.84zM528.17 378.34L539.43 384.84L539.43 397.84L528.17 404.34L516.91 397.84L516.91 384.84zM539.43 436.84L550.69 443.34L550.69 456.34L539.43 462.84L528.17 456.34L528.17 443.34zM539.43 514.84L550.69 521.34L550.69 534.34L539.43 540.84L528.17 534.34L528.17 521.34zM528.17 534.34L539.43 540.84L539.43 553.84L528.17 560.34L516.91 553.84L516.91 540.84zM550.69 105.34L561.94 111.84L561.94 124.84L550.69 131.34L539.43 124.84L539.43 111.84zM561.94 124.84L573.2 131.34L573.2 144.34L561.94 150.84L550.69 144.34L550.69 131.34zM550.69 144.34L561.94 150.84L561.94 163.84L550.69 170.34L539.43 163.84L539.43 150.84zM561.94 241.84L573.2 248.34L573.2 261.34L561.94 267.84L550.69 261.34L550.69 248.34zM561.94 319.84L573.2 326.34L573.2 339.34L561.94 345.84L550.69 339.34L550.69 326.34zM550.69 339.34L561.94 345.84L561.94 358.84L550.69 365.34L539.43 358.84L539.43 345.84zM550.69 378.34L561.94 384.84L561.94 397.84L550.69 404.34L539.43 397.84L539.43 384.84zM561.94 436.84L573.2 443.34L573.2 456.34L561.94 462.84L550.69 456.34L550.69 443.34zM550.69 534.34L561.94 540.84L561.94 553.84L550.69 560.34L539.43 553.84L539.43 540.84zM584.46 7.84L595.72 14.34L595.72 27.34L584.46 33.84L573.2 27.34L573.2 14.34zM584.46 46.84L595.72 53.34L595.72 66.34L584.46 72.84L573.2 66.34L573.2 53.34zM584.46 85.84L595.72 92.34L595.72 105.34L584.46 111.84L573.2 105.34L573.2 92.34zM573.2 222.34L584.46 228.84L584.46 241.84L573.2 248.34L561.94 241.84L561.94 228.84zM573.2 261.34L584.46 267.84L584.46 280.84L573.2 287.34L561.94 280.84L561.94 267.84zM584.46 280.84L595.72 287.34L595.72 300.34L584.46 306.84L573.2 300.34L573.2 287.34zM573.2 300.34L584.46 306.84L584.46 319.84L573.2 326.34L561.94 319.84L561.94 306.84zM584.46 436.84L595.72 443.34L595.72 456.34L584.46 462.84L573.2 456.34L573.2 443.34zM584.46 553.84L595.72 560.34L595.72 573.34L584.46 579.84L573.2 573.34L573.2 560.34zM606.98 46.84L618.24 53.34L618.24 66.34L606.98 72.84L595.72 66.34L595.72 53.34zM595.72 105.34L606.98 111.84L606.98 124.84L595.72 131.34L584.46 124.84L584.46 111.84zM595.72 144.34L606.98 150.84L606.98 163.84L595.72 170.34L584.46 163.84L584.46 150.84zM606.98 163.84L618.24 170.34L618.24 183.34L606.98 189.84L595.72 183.34L595.72 170.34zM595.72 339.34L606.98 345.84L606.98 358.84L595.72 365.34L584.46 358.84L584.46 345.84zM595.72 417.34L606.98 423.84L606.98 436.84L595.72 443.34L584.46 436.84L584.46 423.84zM606.98 475.84L618.24 482.34L618.24 495.34L606.98 501.84L595.72 495.34L595.72 482.34zM595.72 495.34L606.98 501.84L606.98 514.84L595.72 521.34L584.46 514.84L584.46 501.84zM606.98 514.84L618.24 521.34L618.24 534.34L606.98 540.84L595.72 534.34L595.72 521.34zM606.98 553.84L618.24 560.34L618.24 573.34L606.98 579.84L595.72 573.34L595.72 560.34zM629.5 202.84L640.75 209.34L640.75 222.34L629.5 228.84L618.24 222.34L618.24 209.34zM629.5 280.84L640.75 287.34L640.75 300.34L629.5 306.84L618.24 300.34L618.24 287.34zM618.24 339.34L629.5 345.84L629.5 358.84L618.24 365.34L606.98 358.84L606.98 345.84zM618.24 378.34L629.5 384.84L629.5 397.84L618.24 404.34L606.98 397.84L606.98 384.84zM629.5 514.84L640.75 521.34L640.75 534.34L629.5 540.84L618.24 534.34L618.24 521.34zM629.5 553.84L640.75 560.34L640.75 573.34L629.5 579.84L618.24 573.34L618.24 560.34zM652.01 85.84L663.27 92.34L663.27 105.34L652.01 111.84L640.75 105.34L640.75 92.34zM652.01 163.84L663.27 170.34L663.27 183.34L652.01 189.84L640.75 183.34L640.75 170.34zM640.75 261.34L652.01 267.84L652.01 280.84L640.75 287.34L629.5 280.84L629.5 267.84zM652.01 397.84L663.27 404.34L663.27 417.34L652.01 423.84L640.75 417.34L640.75 404.34zM640.75 417.34L652.01 423.84L652.01 436.84L640.75 443.34L629.5 436.84L629.5 423.84zM640.75 456.34L652.01 462.84L652.01 475.84L640.75 482.34L629.5 475.84L629.5 462.84zM652.01 514.84L663.27 521.34L663.27 534.34L652.01 540.84L640.75 534.34L640.75 521.34zM674.53 46.84L685.79 53.34L685.79 66.34L674.53 72.84L663.27 66.34L663.27 53.34zM674.53 202.84L685.79 209.34L685.79 222.34L674.53 228.84L663.27 222.34L663.27 209.34zM663.27 222.34L674.53 228.84L674.53 241.84L663.27 248.34L652.01 241.84L652.01 228.84zM674.53 241.84L685.79 248.34L685.79 261.34L674.53 267.84L663.27 261.34L663.27 248.34zM663.27 261.34L674.53 267.84L674.53 280.84L663.27 287.34L652.01 280.84L652.01 267.84zM663.27 378.34L674.53 384.84L674.53 397.84L663.27 404.34L652.01 397.84L652.01 384.84zM674.53 397.84L685.79 404.34L685.79 417.34L674.53 423.84L663.27 417.34L663.27 404.34zM674.53 436.84L685.79 443.34L685.79 456.34L674.53 462.84L663.27 456.34L663.27 443.34zM663.27 495.34L674.53 501.84L674.53 514.84L663.27 521.34L652.01 514.84L652.01 501.84zM674.53 553.84L685.79 560.34L685.79 573.34L674.53 579.84L663.27 573.34L663.27 560.34zM697.05 163.84L708.31 170.34L708.31 183.34L697.05 189.84L685.79 183.34L685.79 170.34zM697.05 514.84L708.31 521.34L708.31 534.34L697.05 540.84L685.79 534.34L685.79 521.34zM685.79 534.34L697.05 540.84L697.05 553.84L685.79 560.34L674.53 553.84L674.53 540.84zM719.56 7.84L730.82 14.34L730.82 27.34L719.56 33.84L708.31 27.34L708.31 14.34zM719.56 280.84L730.82 287.34L730.82 300.34L719.56 306.84L708.31 300.34L708.31 287.34zM708.31 300.34L719.56 306.84L719.56 319.84L708.31 326.34L697.05 319.84L697.05 306.84zM719.56 319.84L730.82 326.34L730.82 339.34L719.56 345.84L708.31 339.34L708.31 326.34zM708.31 378.34L719.56 384.84L719.56 397.84L708.31 404.34L697.05 397.84L697.05 384.84zM719.56 514.84L730.82 521.34L730.82 534.34L719.56 540.84L708.31 534.34L708.31 521.34zM708.31 534.34L719.56 540.84L719.56 553.84L708.31 560.34L697.05 553.84L697.05 540.84zM742.08 46.84L753.34 53.34L753.34 66.34L742.08 72.84L730.82 66.34L730.82 53.34zM730.82 66.34L742.08 72.84L742.08 85.84L730.82 92.34L719.56 85.84L719.56 72.84zM742.08 124.84L753.34 131.34L753.34 144.34L742.08 150.84L730.82 144.34L730.82 131.34zM730.82 144.34L742.08 150.84L742.08 163.84L730.82 170.34L719.56 163.84L719.56 150.84zM742.08 163.84L753.34 170.34L753.34 183.34L742.08 189.84L730.82 183.34L730.82 170.34zM742.08 202.84L753.34 209.34L753.34 222.34L742.08 228.84L730.82 222.34L730.82 209.34zM742.08 241.84L753.34 248.34L753.34 261.34L742.08 267.84L730.82 261.34L730.82 248.34zM730.82 456.34L742.08 462.84L742.08 475.84L730.82 482.34L719.56 475.84L719.56 462.84zM742.08 553.84L753.34 560.34L753.34 573.34L742.08 579.84L730.82 573.34L730.82 560.34zM753.34 66.34L764.6 72.84L764.6 85.84L753.34 92.34L742.08 85.84L742.08 72.84zM753.34 105.34L764.6 111.84L764.6 124.84L753.34 131.34L742.08 124.84L742.08 111.84zM764.6 163.84L775.86 170.34L775.86 183.34L764.6 189.84L753.34 183.34L753.34 170.34zM753.34 222.34L764.6 228.84L764.6 241.84L753.34 248.34L742.08 241.84L742.08 228.84zM753.34 261.34L764.6 267.84L764.6 280.84L753.34 287.34L742.08 280.84L742.08 267.84zM753.34 300.34L764.6 306.84L764.6 319.84L753.34 326.34L742.08 319.84L742.08 306.84zM753.34 456.34L764.6 462.84L764.6 475.84L753.34 482.34L742.08 475.84L742.08 462.84zM775.86 -11.66L787.12 -5.16L787.12 7.84L775.86 14.34L764.6 7.84L764.6 -5.16zM787.12 46.84L798.38 53.34L798.38 66.34L787.12 72.84L775.86 66.34L775.86 53.34zM775.86 144.34L787.12 150.84L787.12 163.84L775.86 170.34L764.6 163.84L764.6 150.84zM775.86 183.34L787.12 189.84L787.12 202.84L775.86 209.34L764.6 202.84L764.6 189.84zM787.12 202.84L798.38 209.34L798.38 222.34L787.12 228.84L775.86 222.34L775.86 209.34zM775.86 378.34L787.12 384.84L787.12 397.84L775.86 404.34L764.6 397.84L764.6 384.84zM787.12 436.84L798.38 443.34L798.38 456.34L787.12 462.84L775.86 456.34L775.86 443.34zM775.86 495.34L787.12 501.84L787.12 514.84L775.86 521.34L764.6 514.84L764.6 501.84zM787.12 553.84L798.38 560.34L798.38 573.34L787.12 579.84L775.86 573.34L775.86 560.34zM798.38 -11.66L809.63 -5.16L809.63 7.84L798.38 14.34L787.12 7.84L787.12 -5.16zM798.38 66.34L809.63 72.84L809.63 85.84L798.38 92.34L787.12 85.84L787.12 72.84zM809.63 124.84L820.89 131.34L820.89 144.34L809.63 150.84L798.38 144.34L798.38 131.34zM798.38 222.34L809.63 228.84L809.63 241.84L798.38 248.34L787.12 241.84L787.12 228.84zM809.63 280.84L820.89 287.34L820.89 300.34L809.63 306.84L798.38 300.34L798.38 287.34zM798.38 300.34L809.63 306.84L809.63 319.84L798.38 326.34L787.12 319.84L787.12 306.84zM809.63 319.84L820.89 326.34L820.89 339.34L809.63 345.84L798.38 339.34L798.38 326.34zM798.38 534.34L809.63 540.84L809.63 553.84L798.38 560.34L787.12 553.84L787.12 540.84zM820.89 27.34L832.15 33.84L832.15 46.84L820.89 53.34L809.63 46.84L809.63 33.84zM832.15 46.84L843.41 53.34L843.41 66.34L832.15 72.84L820.89 66.34L820.89 53.34zM820.89 105.34L832.15 111.84L832.15 124.84L820.89 131.34L809.63 124.84L809.63 111.84zM820.89 183.34L832.15 189.84L832.15 202.84L820.89 209.34L809.63 202.84L809.63 189.84zM820.89 222.34L832.15 228.84L832.15 241.84L820.89 248.34L809.63 241.84L809.63 228.84zM820.89 261.34L832.15 267.84L832.15 280.84L820.89 287.34L809.63 280.84L809.63 267.84zM820.89 300.34L832.15 306.84L832.15 319.84L820.89 326.34L809.63 319.84L809.63 306.84zM832.15 319.84L843.41 326.34L843.41 339.34L832.15 345.84L820.89 339.34L820.89 326.34zM820.89 339.34L832.15 345.84L832.15 358.84L820.89 365.34L809.63 358.84L809.63 345.84zM832.15 397.84L843.41 404.34L843.41 417.34L832.15 423.84L820.89 417.34L820.89 404.34zM820.89 495.34L832.15 501.84L832.15 514.84L820.89 521.34L809.63 514.84L809.63 501.84zM820.89 534.34L832.15 540.84L832.15 553.84L820.89 560.34L809.63 553.84L809.63 540.84zM832.15 553.84L843.41 560.34L843.41 573.34L832.15 579.84L820.89 573.34L820.89 560.34zM854.67 7.84L865.93 14.34L865.93 27.34L854.67 33.84L843.41 27.34L843.41 14.34zM854.67 46.84L865.93 53.34L865.93 66.34L854.67 72.84L843.41 66.34L843.41 53.34zM854.67 85.84L865.93 92.34L865.93 105.34L854.67 111.84L843.41 105.34L843.41 92.34zM854.67 319.84L865.93 326.34L865.93 339.34L854.67 345.84L843.41 339.34L843.41 326.34zM843.41 417.34L854.67 423.84L854.67 436.84L843.41 443.34L832.15 436.84L832.15 423.84zM843.41 456.34L854.67 462.84L854.67 475.84L843.41 482.34L832.15 475.84L832.15 462.84zM843.41 534.34L854.67 540.84L854.67 553.84L843.41 560.34L832.15 553.84L832.15 540.84zM877.19 7.84L888.44 14.34L888.44 27.34L877.19 33.84L865.93 27.34L865.93 14.34zM877.19 46.84L888.44 53.34L888.44 66.34L877.19 72.84L865.93 66.34L865.93 53.34zM865.93 105.34L877.19 111.84L877.19 124.84L865.93 131.34L854.67 124.84L854.67 111.84zM877.19 124.84L888.44 131.34L888.44 144.34L877.19 150.84L865.93 144.34L865.93 131.34zM865.93 183.34L877.19 189.84L877.19 202.84L865.93 209.34L854.67 202.84L854.67 189.84zM877.19 280.84L888.44 287.34L888.44 300.34L877.19 306.84L865.93 300.34L865.93 287.34zM877.19 319.84L888.44 326.34L888.44 339.34L877.19 345.84L865.93 339.34L865.93 326.34zM865.93 378.34L877.19 384.84L877.19 397.84L865.93 404.34L854.67 397.84L854.67 384.84zM865.93 417.34L877.19 423.84L877.19 436.84L865.93 443.34L854.67 436.84L854.67 423.84zM877.19 436.84L888.44 443.34L888.44 456.34L877.19 462.84L865.93 456.34L865.93 443.34zM877.19 553.84L888.44 560.34L888.44 573.34L877.19 579.84L865.93 573.34L865.93 560.34zM888.44 66.34L899.7 72.84L899.7 85.84L888.44 92.34L877.19 85.84L877.19 72.84zM899.7 85.84L910.96 92.34L910.96 105.34L899.7 111.84L888.44 105.34L888.44 92.34zM899.7 163.84L910.96 170.34L910.96 183.34L899.7 189.84L888.44 183.34L888.44 170.34zM888.44 183.34L899.7 189.84L899.7 202.84L888.44 209.34L877.19 202.84L877.19 189.84zM888.44 339.34L899.7 345.84L899.7 358.84L888.44 365.34L877.19 358.84L877.19 345.84zM899.7 358.84L910.96 365.34L910.96 378.34L899.7 384.84L888.44 378.34L888.44 365.34zM888.44 417.34L899.7 423.84L899.7 436.84L888.44 443.34L877.19 436.84L877.19 423.84zM888.44 456.34L899.7 462.84L899.7 475.84L888.44 482.34L877.19 475.84L877.19 462.84zM899.7 514.84L910.96 521.34L910.96 534.34L899.7 540.84L888.44 534.34L888.44 521.34zM910.96 -11.66L922.22 -5.16L922.22 7.84L910.96 14.34L899.7 7.84L899.7 -5.16zM922.22 7.84L933.48 14.34L933.48 27.34L922.22 33.84L910.96 27.34L910.96 14.34zM910.96 144.34L922.22 150.84L922.22 163.84L910.96 170.34L899.7 163.84L899.7 150.84zM922.22 163.84L933.48 170.34L933.48 183.34L922.22 189.84L910.96 183.34L910.96 170.34zM922.22 202.84L933.48 209.34L933.48 222.34L922.22 228.84L910.96 222.34L910.96 209.34zM910.96 222.34L922.22 228.84L922.22 241.84L910.96 248.34L899.7 241.84L899.7 228.84zM922.22 280.84L933.48 287.34L933.48 300.34L922.22 306.84L910.96 300.34L910.96 287.34zM922.22 397.84L933.48 404.34L933.48 417.34L922.22 423.84L910.96 417.34L910.96 404.34zM910.96 495.34L922.22 501.84L922.22 514.84L910.96 521.34L899.7 514.84L899.7 501.84zM922.22 553.84L933.48 560.34L933.48 573.34L922.22 579.84L910.96 573.34L910.96 560.34zM933.48 -11.66L944.74 -5.16L944.74 7.84L933.48 14.34L922.22 7.84L922.22 -5.16zM933.48 27.34L944.74 33.84L944.74 46.84L933.48 53.34L922.22 46.84L922.22 33.84zM944.74 85.84L956 92.34L956 105.34L944.74 111.84L933.48 105.34L933.48 92.34zM944.74 124.84L956 131.34L956 144.34L944.74 150.84L933.48 144.34L933.48 131.34zM944.74 280.84L956 287.34L956 300.34L944.74 306.84L933.48 300.34L933.48 287.34zM933.48 417.34L944.74 423.84L944.74 436.84L933.48 443.34L922.22 436.84L922.22 423.84zM944.74 436.84L956 443.34L956 456.34L944.74 462.84L933.48 456.34L933.48 443.34zM933.48 456.34L944.74 462.84L944.74 475.84L933.48 482.34L922.22 475.84L922.22 462.84zM967.26 7.84L978.51 14.34L978.51 27.34L967.26 33.84L956 27.34L956 14.34zM956 105.34L967.26 111.84L967.26 124.84L956 131.34L944.74 124.84L944.74 111.84zM956 144.34L967.26 150.84L967.26 163.84L956 170.34L944.74 163.84L944.74 150.84zM967.26 163.84L978.51 170.34L978.51 183.34L967.26 189.84L956 183.34L956 170.34zM956 222.34L967.26 228.84L967.26 241.84L956 248.34L944.74 241.84L944.74 228.84zM967.26 241.84L978.51 248.34L978.51 261.34L967.26 267.84L956 261.34L956 248.34zM956 378.34L967.26 384.84L967.26 397.84L956 404.34L944.74 397.84L944.74 384.84zM956 495.34L967.26 501.84L967.26 514.84L956 521.34L944.74 514.84L944.74 501.84zM967.26 514.84L978.51 521.34L978.51 534.34L967.26 540.84L956 534.34L956 521.34zM967.26 553.84L978.51 560.34L978.51 573.34L967.26 579.84L956 573.34L956 560.34zM989.77 163.84L1001.03 170.34L1001.03 183.34L989.77 189.84L978.51 183.34L978.51 170.34zM978.51 183.34L989.77 189.84L989.77 202.84L978.51 209.34L967.26 202.84L967.26 189.84zM989.77 241.84L1001.03 248.34L1001.03 261.34L989.77 267.84L978.51 261.34L978.51 248.34zM978.51 300.34L989.77 306.84L989.77 319.84L978.51 326.34L967.26 319.84L967.26 306.84zM978.51 417.34L989.77 423.84L989.77 436.84L978.51 443.34L967.26 436.84L967.26 423.84zM978.51 456.34L989.77 462.84L989.77 475.84L978.51 482.34L967.26 475.84L967.26 462.84zM978.51 534.34L989.77 540.84L989.77 553.84L978.51 560.34L967.26 553.84L967.26 540.84zM1012.29 7.84L1023.55 14.34L1023.55 27.34L1012.29 33.84L1001.03 27.34L1001.03 14.34zM1001.03 27.34L1012.29 33.84L1012.29 46.84L1001.03 53.34L989.77 46.84L989.77 33.84zM1001.03 66.34L1012.29 72.84L1012.29 85.84L1001.03 92.34L989.77 85.84L989.77 72.84zM1012.29 358.84L1023.55 365.34L1023.55 378.34L1012.29 384.84L1001.03 378.34L1001.03 365.34zM1012.29 397.84L1023.55 404.34L1023.55 417.34L1012.29 423.84L1001.03 417.34L1001.03 404.34zM1034.81 7.84L1046.07 14.34L1046.07 27.34L1034.81 33.84L1023.55 27.34L1023.55 14.34zM1023.55 27.34L1034.81 33.84L1034.81 46.84L1023.55 53.34L1012.29 46.84L1012.29 33.84zM1034.81 46.84L1046.07 53.34L1046.07 66.34L1034.81 72.84L1023.55 66.34L1023.55 53.34zM1023.55 66.34L1034.81 72.84L1034.81 85.84L1023.55 92.34L1012.29 85.84L1012.29 72.84zM1034.81 124.84L1046.07 131.34L1046.07 144.34L1034.81 150.84L1023.55 144.34L1023.55 131.34zM1034.81 163.84L1046.07 170.34L1046.07 183.34L1034.81 189.84L1023.55 183.34L1023.55 170.34zM1023.55 222.34L1034.81 228.84L1034.81 241.84L1023.55 248.34L1012.29 241.84L1012.29 228.84zM1034.81 241.84L1046.07 248.34L1046.07 261.34L1034.81 267.84L1023.55 261.34L1023.55 248.34zM1023.55 261.34L1034.81 267.84L1034.81 280.84L1023.55 287.34L1012.29 280.84L1012.29 267.84zM1023.55 300.34L1034.81 306.84L1034.81 319.84L1023.55 326.34L1012.29 319.84L1012.29 306.84zM1034.81 397.84L1046.07 404.34L1046.07 417.34L1034.81 423.84L1023.55 417.34L1023.55 404.34zM1034.81 436.84L1046.07 443.34L1046.07 456.34L1034.81 462.84L1023.55 456.34L1023.55 443.34zM1034.81 475.84L1046.07 482.34L1046.07 495.34L1034.81 501.84L1023.55 495.34L1023.55 482.34zM1023.55 534.34L1034.81 540.84L1034.81 553.84L1023.55 560.34L1012.29 553.84L1012.29 540.84zM1046.07 -11.66L1057.32 -5.16L1057.32 7.84L1046.07 14.34L1034.81 7.84L1034.81 -5.16zM1046.07 66.34L1057.32 72.84L1057.32 85.84L1046.07 92.34L1034.81 85.84L1034.81 72.84zM1057.32 163.84L1068.58 170.34L1068.58 183.34L1057.32 189.84L1046.07 183.34L1046.07 170.34zM1046.07 222.34L1057.32 228.84L1057.32 241.84L1046.07 248.34L1034.81 241.84L1034.81 228.84zM1057.32 241.84L1068.58 248.34L1068.58 261.34L1057.32 267.84L1046.07 261.34L1046.07 248.34zM1057.32 319.84L1068.58 326.34L1068.58 339.34L1057.32 345.84L1046.07 339.34L1046.07 326.34zM1046.07 339.34L1057.32 345.84L1057.32 358.84L1046.07 365.34L1034.81 358.84L1034.81 345.84zM1057.32 358.84L1068.58 365.34L1068.58 378.34L1057.32 384.84L1046.07 378.34L1046.07 365.34zM1046.07 378.34L1057.32 384.84L1057.32 397.84L1046.07 404.34L1034.81 397.84L1034.81 384.84zM1057.32 397.84L1068.58 404.34L1068.58 417.34L1057.32 423.84L1046.07 417.34L1046.07 404.34zM1046.07 456.34L1057.32 462.84L1057.32 475.84L1046.07 482.34L1034.81 475.84L1034.81 462.84zM1057.32 514.84L1068.58 521.34L1068.58 534.34L1057.32 540.84L1046.07 534.34L1046.07 521.34zM1079.84 7.84L1091.1 14.34L1091.1 27.34L1079.84 33.84L1068.58 27.34L1068.58 14.34zM1068.58 105.34L1079.84 111.84L1079.84 124.84L1068.58 131.34L1057.32 124.84L1057.32 111.84zM1079.84 241.84L1091.1 248.34L1091.1 261.34L1079.84 267.84L1068.58 261.34L1068.58 248.34zM1079.84 280.84L1091.1 287.34L1091.1 300.34L1079.84 306.84L1068.58 300.34L1068.58 287.34zM1068.58 339.34L1079.84 345.84L1079.84 358.84L1068.58 365.34L1057.32 358.84L1057.32 345.84zM1079.84 397.84L1091.1 404.34L1091.1 417.34L1079.84 423.84L1068.58 417.34L1068.58 404.34zM1068.58 417.34L1079.84 423.84L1079.84 436.84L1068.58 443.34L1057.32 436.84L1057.32 423.84zM1091.1 27.34L1102.36 33.84L1102.36 46.84L1091.1 53.34L1079.84 46.84L1079.84 33.84zM1091.1 105.34L1102.36 111.84L1102.36 124.84L1091.1 131.34L1079.84 124.84L1079.84 111.84zM1091.1 183.34L1102.36 189.84L1102.36 202.84L1091.1 209.34L1079.84 202.84L1079.84 189.84zM1091.1 300.34L1102.36 306.84L1102.36 319.84L1091.1 326.34L1079.84 319.84L1079.84 306.84zM1091.1 495.34L1102.36 501.84L1102.36 514.84L1091.1 521.34L1079.84 514.84L1079.84 501.84zM1113.62 -11.66L1124.88 -5.16L1124.88 7.84L1113.62 14.34L1102.36 7.84L1102.36 -5.16zM1113.62 66.34L1124.88 72.84L1124.88 85.84L1113.62 92.34L1102.36 85.84L1102.36 72.84zM1113.62 144.34L1124.88 150.84L1124.88 163.84L1113.62 170.34L1102.36 163.84L1102.36 150.84zM1124.88 280.84L1136.13 287.34L1136.13 300.34L1124.88 306.84L1113.62 300.34L1113.62 287.34zM1124.88 514.84L1136.13 521.34L1136.13 534.34L1124.88 540.84L1113.62 534.34L1113.62 521.34zM1113.62 534.34L1124.88 540.84L1124.88 553.84L1113.62 560.34L1102.36 553.84L1102.36 540.84zM1147.39 46.84L1158.65 53.34L1158.65 66.34L1147.39 72.84L1136.13 66.34L1136.13 53.34zM1147.39 85.84L1158.65 92.34L1158.65 105.34L1147.39 111.84L1136.13 105.34L1136.13 92.34zM1136.13 144.34L1147.39 150.84L1147.39 163.84L1136.13 170.34L1124.88 163.84L1124.88 150.84zM1136.13 339.34L1147.39 345.84L1147.39 358.84L1136.13 365.34L1124.88 358.84L1124.88 345.84zM1147.39 436.84L1158.65 443.34L1158.65 456.34L1147.39 462.84L1136.13 456.34L1136.13 443.34zM1147.39 514.84L1158.65 521.34L1158.65 534.34L1147.39 540.84L1136.13 534.34L1136.13 521.34zM1136.13 534.34L1147.39 540.84L1147.39 553.84L1136.13 560.34L1124.88 553.84L1124.88 540.84zM1158.65 144.34L1169.91 150.84L1169.91 163.84L1158.65 170.34L1147.39 163.84L1147.39 150.84zM1169.91 436.84L1181.17 443.34L1181.17 456.34L1169.91 462.84L1158.65 456.34L1158.65 443.34zM1169.91 475.84L1181.17 482.34L1181.17 495.34L1169.91 501.84L1158.65 495.34L1158.65 482.34zM1181.17 27.34L1192.43 33.84L1192.43 46.84L1181.17 53.34L1169.91 46.84L1169.91 33.84zM1181.17 105.34L1192.43 111.84L1192.43 124.84L1181.17 131.34L1169.91 124.84L1169.91 111.84zM1181.17 222.34L1192.43 228.84L1192.43 241.84L1181.17 248.34L1169.91 241.84L1169.91 228.84zM1181.17 300.34L1192.43 306.84L1192.43 319.84L1181.17 326.34L1169.91 319.84L1169.91 306.84zM1181.17 339.34L1192.43 345.84L1192.43 358.84L1181.17 365.34L1169.91 358.84L1169.91 345.84zM1192.43 397.84L1203.69 404.34L1203.69 417.34L1192.43 423.84L1181.17 417.34L1181.17 404.34zM1181.17 456.34L1192.43 462.84L1192.43 475.84L1181.17 482.34L1169.91 475.84L1169.91 462.84zM1192.43 475.84L1203.69 482.34L1203.69 495.34L1192.43 501.84L1181.17 495.34L1181.17 482.34zM1203.69 27.34L1214.95 33.84L1214.95 46.84L1203.69 53.34L1192.43 46.84L1192.43 33.84zM1214.95 85.84L1226.2 92.34L1226.2 105.34L1214.95 111.84L1203.69 105.34L1203.69 92.34zM1203.69 378.34L1214.95 384.84L1214.95 397.84L1203.69 404.34L1192.43 397.84L1192.43 384.84zM1203.69 456.34L1214.95 462.84L1214.95 475.84L1203.69 482.34L1192.43 475.84L1192.43 462.84zM1203.69 495.34L1214.95 501.84L1214.95 514.84L1203.69 521.34L1192.43 514.84L1192.43 501.84zM1203.69 534.34L1214.95 540.84L1214.95 553.84L1203.69 560.34L1192.43 553.84L1192.43 540.84zM1214.95 553.84L1226.2 560.34L1226.2 573.34L1214.95 579.84L1203.69 573.34L1203.69 560.34zM1226.2 -11.66L1237.46 -5.16L1237.46 7.84L1226.2 14.34L1214.95 7.84L1214.95 -5.16zM1226.2 27.34L1237.46 33.84L1237.46 46.84L1226.2 53.34L1214.95 46.84L1214.95 33.84zM1226.2 66.34L1237.46 72.84L1237.46 85.84L1226.2 92.34L1214.95 85.84L1214.95 72.84zM1237.46 124.84L1248.72 131.34L1248.72 144.34L1237.46 150.84L1226.2 144.34L1226.2 131.34zM1237.46 163.84L1248.72 170.34L1248.72 183.34L1237.46 189.84L1226.2 183.34L1226.2 170.34zM1237.46 319.84L1248.72 326.34L1248.72 339.34L1237.46 345.84L1226.2 339.34L1226.2 326.34zM1226.2 339.34L1237.46 345.84L1237.46 358.84L1226.2 365.34L1214.95 358.84L1214.95 345.84zM1237.46 397.84L1248.72 404.34L1248.72 417.34L1237.46 423.84L1226.2 417.34L1226.2 404.34zM1237.46 475.84L1248.72 482.34L1248.72 495.34L1237.46 501.84L1226.2 495.34L1226.2 482.34zM1226.2 495.34L1237.46 501.84L1237.46 514.84L1226.2 521.34L1214.95 514.84L1214.95 501.84zM1226.2 534.34L1237.46 540.84L1237.46 553.84L1226.2 560.34L1214.95 553.84L1214.95 540.84zM1248.72 -11.66L1259.98 -5.16L1259.98 7.84L1248.72 14.34L1237.46 7.84L1237.46 -5.16zM1259.98 7.84L1271.24 14.34L1271.24 27.34L1259.98 33.84L1248.72 27.34L1248.72 14.34zM1248.72 27.34L1259.98 33.84L1259.98 46.84L1248.72 53.34L1237.46 46.84L1237.46 33.84zM1248.72 66.34L1259.98 72.84L1259.98 85.84L1248.72 92.34L1237.46 85.84L1237.46 72.84zM1248.72 183.34L1259.98 189.84L1259.98 202.84L1248.72 209.34L1237.46 202.84L1237.46 189.84zM1248.72 222.34L1259.98 228.84L1259.98 241.84L1248.72 248.34L1237.46 241.84L1237.46 228.84zM1248.72 300.34L1259.98 306.84L1259.98 319.84L1248.72 326.34L1237.46 319.84L1237.46 306.84zM1259.98 358.84L1271.24 365.34L1271.24 378.34L1259.98 384.84L1248.72 378.34L1248.72 365.34zM1259.98 397.84L1271.24 404.34L1271.24 417.34L1259.98 423.84L1248.72 417.34L1248.72 404.34zM1248.72 417.34L1259.98 423.84L1259.98 436.84L1248.72 443.34L1237.46 436.84L1237.46 423.84zM1259.98 436.84L1271.24 443.34L1271.24 456.34L1259.98 462.84L1248.72 456.34L1248.72 443.34zM1259.98 514.84L1271.24 521.34L1271.24 534.34L1259.98 540.84L1248.72 534.34L1248.72 521.34zM1271.24 -11.66L1282.5 -5.16L1282.5 7.84L1271.24 14.34L1259.98 7.84L1259.98 -5.16zM1282.5 124.84L1293.76 131.34L1293.76 144.34L1282.5 150.84L1271.24 144.34L1271.24 131.34zM1282.5 163.84L1293.76 170.34L1293.76 183.34L1282.5 189.84L1271.24 183.34L1271.24 170.34zM1282.5 202.84L1293.76 209.34L1293.76 222.34L1282.5 228.84L1271.24 222.34L1271.24 209.34zM1282.5 319.84L1293.76 326.34L1293.76 339.34L1282.5 345.84L1271.24 339.34L1271.24 326.34zM1271.24 339.34L1282.5 345.84L1282.5 358.84L1271.24 365.34L1259.98 358.84L1259.98 345.84zM1271.24 378.34L1282.5 384.84L1282.5 397.84L1271.24 404.34L1259.98 397.84L1259.98 384.84zM1282.5 514.84L1293.76 521.34L1293.76 534.34L1282.5 540.84L1271.24 534.34L1271.24 521.34zM1271.24 534.34L1282.5 540.84L1282.5 553.84L1271.24 560.34L1259.98 553.84L1259.98 540.84zM1282.5 553.84L1293.76 560.34L1293.76 573.34L1282.5 579.84L1271.24 573.34L1271.24 560.34zM1293.76 -11.66L1305.01 -5.16L1305.01 7.84L1293.76 14.34L1282.5 7.84L1282.5 -5.16zM1305.01 7.84L1316.27 14.34L1316.27 27.34L1305.01 33.84L1293.76 27.34L1293.76 14.34zM1305.01 46.84L1316.27 53.34L1316.27 66.34L1305.01 72.84L1293.76 66.34L1293.76 53.34zM1293.76 66.34L1305.01 72.84L1305.01 85.84L1293.76 92.34L1282.5 85.84L1282.5 72.84zM1305.01 85.84L1316.27 92.34L1316.27 105.34L1305.01 111.84L1293.76 105.34L1293.76 92.34zM1293.76 183.34L1305.01 189.84L1305.01 202.84L1293.76 209.34L1282.5 202.84L1282.5 189.84zM1305.01 397.84L1316.27 404.34L1316.27 417.34L1305.01 423.84L1293.76 417.34L1293.76 404.34zM1293.76 456.34L1305.01 462.84L1305.01 475.84L1293.76 482.34L1282.5 475.84L1282.5 462.84zM1305.01 475.84L1316.27 482.34L1316.27 495.34L1305.01 501.84L1293.76 495.34L1293.76 482.34zM1316.27 27.34L1327.53 33.84L1327.53 46.84L1316.27 53.34L1305.01 46.84L1305.01 33.84zM1316.27 105.34L1327.53 111.84L1327.53 124.84L1316.27 131.34L1305.01 124.84L1305.01 111.84zM1316.27 144.34L1327.53 150.84L1327.53 163.84L1316.27 170.34L1305.01 163.84L1305.01 150.84zM1316.27 183.34L1327.53 189.84L1327.53 202.84L1316.27 209.34L1305.01 202.84L1305.01 189.84zM1316.27 378.34L1327.53 384.84L1327.53 397.84L1316.27 404.34L1305.01 397.84L1305.01 384.84zM1316.27 456.34L1327.53 462.84L1327.53 475.84L1316.27 482.34L1305.01 475.84L1305.01 462.84zM1316.27 534.34L1327.53 540.84L1327.53 553.84L1316.27 560.34L1305.01 553.84L1305.01 540.84zM1338.79 -11.66L1350.05 -5.16L1350.05 7.84L1338.79 14.34L1327.53 7.84L1327.53 -5.16zM1338.79 300.34L1350.05 306.84L1350.05 319.84L1338.79 326.34L1327.53 319.84L1327.53 306.84zM1338.79 339.34L1350.05 345.84L1350.05 358.84L1338.79 365.34L1327.53 358.84L1327.53 345.84zM1350.05 436.84L1361.31 443.34L1361.31 456.34L1350.05 462.84L1338.79 456.34L1338.79 443.34zM1338.79 456.34L1350.05 462.84L1350.05 475.84L1338.79 482.34L1327.53 475.84L1327.53 462.84zM1338.79 495.34L1350.05 501.84L1350.05 514.84L1338.79 521.34L1327.53 514.84L1327.53 501.84zM1350.05 514.84L1361.31 521.34L1361.31 534.34L1350.05 540.84L1338.79 534.34L1338.79 521.34zM1338.79 534.34L1350.05 540.84L1350.05 553.84L1338.79 560.34L1327.53 553.84L1327.53 540.84zM1361.31 66.34L1372.57 72.84L1372.57 85.84L1361.31 92.34L1350.05 85.84L1350.05 72.84zM1372.57 202.84L1383.83 209.34L1383.83 222.34L1372.57 228.84L1361.31 222.34L1361.31 209.34zM1372.57 280.84L1383.83 287.34L1383.83 300.34L1372.57 306.84L1361.31 300.34L1361.31 287.34zM1361.31 339.34L1372.57 345.84L1372.57 358.84L1361.31 365.34L1350.05 358.84L1350.05 345.84zM1361.31 378.34L1372.57 384.84L1372.57 397.84L1361.31 404.34L1350.05 397.84L1350.05 384.84zM1372.57 436.84L1383.83 443.34L1383.83 456.34L1372.57 462.84L1361.31 456.34L1361.31 443.34zM1395.08 46.84L1406.34 53.34L1406.34 66.34L1395.08 72.84L1383.83 66.34L1383.83 53.34zM1383.83 66.34L1395.08 72.84L1395.08 85.84L1383.83 92.34L1372.57 85.84L1372.57 72.84zM1395.08 124.84L1406.34 131.34L1406.34 144.34L1395.08 150.84L1383.83 144.34L1383.83 131.34zM1383.83 144.34L1395.08 150.84L1395.08 163.84L1383.83 170.34L1372.57 163.84L1372.57 150.84zM1395.08 163.84L1406.34 170.34L1406.34 183.34L1395.08 189.84L1383.83 183.34L1383.83 170.34zM1383.83 222.34L1395.08 228.84L1395.08 241.84L1383.83 248.34L1372.57 241.84L1372.57 228.84zM1383.83 261.34L1395.08 267.84L1395.08 280.84L1383.83 287.34L1372.57 280.84L1372.57 267.84zM1395.08 319.84L1406.34 326.34L1406.34 339.34L1395.08 345.84L1383.83 339.34L1383.83 326.34zM1395.08 514.84L1406.34 521.34L1406.34 534.34L1395.08 540.84L1383.83 534.34L1383.83 521.34zM1395.08 553.84L1406.34 560.34L1406.34 573.34L1395.08 579.84L1383.83 573.34L1383.83 560.34zM1417.6 46.84L1428.86 53.34L1428.86 66.34L1417.6 72.84L1406.34 66.34L1406.34 53.34zM1406.34 144.34L1417.6 150.84L1417.6 163.84L1406.34 170.34L1395.08 163.84L1395.08 150.84zM1417.6 163.84L1428.86 170.34L1428.86 183.34L1417.6 189.84L1406.34 183.34L1406.34 170.34zM1417.6 397.84L1428.86 404.34L1428.86 417.34L1417.6 423.84L1406.34 417.34L1406.34 404.34zM1406.34 417.34L1417.6 423.84L1417.6 436.84L1406.34 443.34L1395.08 436.84L1395.08 423.84zM1417.6 436.84L1428.86 443.34L1428.86 456.34L1417.6 462.84L1406.34 456.34L1406.34 443.34zM1417.6 475.84L1428.86 482.34L1428.86 495.34L1417.6 501.84L1406.34 495.34L1406.34 482.34zM1406.34 495.34L1417.6 501.84L1417.6 514.84L1406.34 521.34L1395.08 514.84L1395.08 501.84zM1428.86 -11.66L1440.12 -5.16L1440.12 7.84L1428.86 14.34L1417.6 7.84L1417.6 -5.16zM1428.86 66.34L1440.12 72.84L1440.12 85.84L1428.86 92.34L1417.6 85.84L1417.6 72.84zM1440.12 85.84L1451.38 92.34L1451.38 105.34L1440.12 111.84L1428.86 105.34L1428.86 92.34zM1440.12 163.84L1451.38 170.34L1451.38 183.34L1440.12 189.84L1428.86 183.34L1428.86 170.34zM1428.86 183.34L1440.12 189.84L1440.12 202.84L1428.86 209.34L1417.6 202.84L1417.6 189.84zM1440.12 319.84L1451.38 326.34L1451.38 339.34L1440.12 345.84L1428.86 339.34L1428.86 326.34zM1428.86 339.34L1440.12 345.84L1440.12 358.84L1428.86 365.34L1417.6 358.84L1417.6 345.84zM1440.12 397.84L1451.38 404.34L1451.38 417.34L1440.12 423.84L1428.86 417.34L1428.86 404.34zM1428.86 417.34L1440.12 423.84L1440.12 436.84L1428.86 443.34L1417.6 436.84L1417.6 423.84zM1428.86 534.34L1440.12 540.84L1440.12 553.84L1428.86 560.34L1417.6 553.84L1417.6 540.84zM1440.12 553.84L1451.38 560.34L1451.38 573.34L1440.12 579.84L1428.86 573.34L1428.86 560.34z" stroke="rgba(22, 32, 42, 0.93)" stroke-width="2"></path></g><defs><mask id="SvgjsMask1015"><rect width="1440" height="560" fill="#ffffff"></rect></mask></defs></svg>